<?xml version="1.0" encoding="UTF-8"?>
<svg version="1.1"
   xmlns="http://www.w3.org/2000/svg"
   viewBox="0 0 983.10736 2020.6631"
   width="1010.3315"
   height="1010.3315"
>
   <path
      id="tag-body"
      fill="#4285f4"
      d="m 487.64335,0.00696506 c -4.366,0.0411 -8.73047,0.137634 -13.09347,0.291834 C 383.90688,6.0504991 343.88499,55.443644 281.52499,112.06855 c -61.637,55.591 -122.86885,111.63212 -183.688849,168.11512 -61.86,56.825 -125.487289,112.18829 -186.431289,170.07229 -19.420002,18.445 -41.258472,36.27154 -58.638072,56.71754 -51.33,60.385 -56.08601,118.9792 -56.10721,193.6332 l 0.003,99.2423 0.0375,336.8408 0.008,481.1191 -0.0295,151.7403 c -0.0331,37.91 -2.47329,84.1597 5.79551,120.7497 6.4405,28.5 29.46892,67.6922 51.70702,86.7122 23.4442,20.41 51.839352,34.2984 82.342352,40.2784 23.512,4.42 55.7511101,3.2309 80.339119,3.2209 l 105.280699,-0.051 386.97908,0.011 365.25123,-0.029 96.6008,0.059 c 24.72,0.01 54.51852,1.2311 78.33852,-3.5689 30.19,-6.1 62.0611,-23.2104 83.9011,-44.9104 26.53,-26.7 44.1306,-60.9603 50.3706,-98.0803 3.86,-23.94 3.1595,-42.3192 3.1495,-66.4792 l -0.051,-68.731 -0.029,-232.6398 V 681.32959 c -0.24,-73.874 -18.0597,-135.21389 -71.4397,-188.63989 -37.63,-37.672 -77.2301,-72.43471 -116.51012,-108.34271 L 788.42358,192.87711 679.57555,93.468808 C 651.30555,67.586812 628.40592,42.422541 593.98192,24.684341 557.50792,5.8899411 528.30335,-0.23703494 487.64335,0.00696506 Z M 491.47043,217.72316 c 52.33512,0.30265 96.94712,40.26085 101.93837,93.49398 5.323,56.782 -36.45746,107.1029 -93.25046,112.3079 -56.626,5.189 -106.76449,-36.44257 -112.07249,-93.05757 -5.308,-56.615 36.21796,-106.84173 92.82196,-112.26773 3.54818,-0.34013 7.07361,-0.49675 10.56262,-0.47658 z" />
   <path
      id="zipper-outline"
      fill="#174ea6"
      d="m 40.341091,1318.2398 c 42.341,-4.45 73.010999,20.85 111.470999,32.26 7.823,2.32 21.91,3.28 30.416,3.3 66.53299,0.12 133.07099,0.08 199.60499,0.09 l 394.78,-0.03 159.91,-0.32 c 25.14,-0.01 52.7,-1.23 77.57002,0.74 33.19,2.63 38.67,31.68 38.82,58.08 l -0.14,76.99 c -0.17,25.82 4.07,63.41 -21.85,77.81 -13.16,7.31 -43.07002,5.48 -58.85002,5.49 l -70.24,0.02 -259.71,-0.6 -439.983,-0.03 c 5.664,34.06 9.013,69.09 12.487,103.44 2.215,21.89 6.544,49.27 5.837,70.87 -1.299,26.59 -15.787,51.03 -34.52999,68.21 -41.802,38.3 -112.776999,34.42 -148.957999,-9.8 -11.615,-14.19 -21.134,-30.33 -24.032,-49.11 -3.2629999,-21.14 2.003,-43.02 3.828,-64.09 3.039,-28.49 7.396,-57.23 9.144,-85.86 -17.9159999,-3.72 -29.5349999,-7.64 -44.796009,-19.29 -29.004,-22.14 -47.447,-67.91 -52.332,-103.35 -5.542,-40.22 9.851,-92.21 34.252,-124.42 18.299,-24.15 47.454009,-37.03 77.301009,-40.4 z" />
   <path
      id="zipper-teeth"
      fill="#d2e3fc"
      d="m 901.22308,1394.6098 c 2.66,-2.21 5.88,-4.27 8.76,-6.23 7.33,0.69 18.07,2.73 25.55,3.96 l -0.02,53.89 12.54,-0.13 c 0.09,-18.25 -0.1,-36.49 -0.59,-54.73 24.33,-3.3 42.92,-1.83 67.18002,-2.61 l 2.84,65.22 0.2,82.67 -54.05002,-0.02 -16.71,0.01 c -2.38,-21.23 -2.51,-36.51 -2.66,-57.85 l -51.85,-0.31 c 0.2,17.87 -0.43,36.62 -0.51,54.63 -14.71,3.68 -19.52,3.67 -34.2,0.04 -0.26,-18.12 -0.34,-36.24 -0.23,-54.36 l -52.29,-0.01 c 0.62,21.51 0.6,36.81 -2.87,57.87 -29.34,0.3 -35.762,2.41 -32.75,-31.35 0.64,-7.15 0.14,-19.2 0.11,-26.78 l -54.054,-0.04 0.052,55.23 c -14.262,3.46 -20.504,3.25 -34.772,-0.48 l 0.021,-54.7 -51.389,0.25 c -1.371,18.58 -2.285,37.18 -2.74,55.8 -12.572,2.15 -20.396,1.92 -32.767,-0.64 -0.307,-18.38 -0.436,-36.76 -0.387,-55.15 l -54.024,-0.32 c 0.033,18.02 0.443,38.14 -0.455,55.93 -5.116,0.8 -10.306,1.73 -15.469,2.13 -5.079,0.39 -11.565,-0.03 -15.408,-3.76 -6.337,-6.15 -3.406,-43.61 -3.4,-54.22 l -54.102,-0.08 -0.167,56.02 c -13.046,2.15 -20.872,2.14 -33.777,-0.25 l 0.023,-55.69 -53.311,0.24 c 0.1,18.15 -0.291,36.75 -0.284,55 -9.647,2.29 -19.415,2.68 -29.268,2.97 -3.76,-6.05 -5.047,-8.43 -5.301,-15.81 -0.481,-14 -0.186,-28.1 -0.069,-42.11 -17.622,-0.22 -35.245,-0.35 -52.869,-0.38 -0.175,20.07 2.007,36.07 -2.618,55.89 -12.358,3.28 -17.845,2.23 -30.575,1.49 -2.105,-22.54 -0.754,-65.82 -0.739,-89.76 14.383,0.44 28.772,0.66 43.161,0.66 0.332,-16.87 0.04,-34.67 0.005,-51.62 3.777,-3.18 5.307,-3.89 9.643,-6.17 10.92,-0.56 14.597,0.96 25.009,3.99 -0.05,17.94 0.072,35.88 0.365,53.82 17.311,-0.51 34.63,-0.7 51.949,-0.56 0.32,-17.98 1.23,-35.94 2.728,-53.86 13.861,-3.63 17.875,-3.49 31.711,0.17 0.283,17.91 0.383,35.82 0.3,53.74 17.393,-0.3 37.223,0.37 54.811,0.51 -0.741,-18.15 -0.722,-36.33 0.055,-54.48 11.296,-2.24 19.684,-2.99 31.047,-3.62 4.328,17.88 3.13,39.48 2.821,58.06 l 54.047,0.04 c 0.532,-19.16 -0.302,-35.63 1.464,-55.03 12.399,-2.06 19.322,-1.65 31.487,0.69 0.569,17.94 0.929,35.89 1.08,53.84 17.771,-0.29 36.274,-0.02 54.101,0 0.119,-13.8 -1.081,-29.36 -0.154,-42.96 1.258,-18.44 20.459,-13.61 32.862,-10.94 1.832,19.22 1.953,34.64 1.847,53.79 17.511,0.39 35.027,0.57 52.542,0.56 -0.147,-21.52 -1.126,-36.74 3.673,-57.94 l 26.861,0.02 c 7.168,18.51 4.555,37.94 4.275,57.93 l 54.799,-0.02 -0.02,-53.95 c 12.97,-4.04 18.8,-3.73 32.14,-1.08 2.27,20.84 2.3,34.17 2.09,55.04 l 52.66,-0.01 c 0.38,-16.86 0.04,-35.12 0.04,-52.09 z" />
   <path
      id="zipper-pull"
      fill="#d2e3fc"
      d="m 160.17709,1504.8398 1.209,0.19 c 3.45,4.79 18.207,197.86 24.15,223.13 3.823,16.26 -5.73,41.6 -17.721,54.99 -12.42,13.71 -29.719,22 -48.182,23.09 -21.334999,1.17 -36.875999,-5.67 -52.460999,-19.47 -2.059,-2.31 -4.067,-4.66 -6.025,-7.05 -6.637,-8.25 -14.448,-23.34 -14.362,-33.68 0.194,-23.1 3.819,-51.43 6.243,-74.46 l 16.712,-157.75 c 4.66,-0.37 9.728,-0.45 14.431,-0.61 0.534,1.14 1.075,2.29 1.623,3.43 9.907,20.58 30.658999,33.88 51.250999,13.67 4.655,-4.57 6.546,-13.18 8.378,-19.59 4.73,-1.48 10.108,-3.93 14.754,-5.89 z" />
   <path
      id="zipper-hole"
      fill="#4285f4"
      d="m 106.84909,1693.5198 c 21.952,-4.95 43.728,8.94 48.509,30.93 4.782,21.98 -9.26,43.66 -31.282,48.28 -21.796,4.57 -43.198999,-9.29 -47.931999,-31.06 -4.733,-21.76 8.978,-43.26 30.704999,-48.15 z" />
   <path
      id="zipper-slider-top"
      fill="#d2e3fc"
      d="m 42.981091,1352.2398 c 39.047,-3.16 67.279999,24.13 104.140999,32.52 21.795,4.96 40.486,4.05 62.54699,3.67 0.715,49.93 0.83,99.87 0.345,149.8 l -9.77,-2.31 c -6.55699,-27.77 -2.223,-52.97 -12.28999,-87.06 -12.53,-37.4 -54.494,-54.92 -91.308999,-43.5 -8.028,2.48 -19.216,9.95 -27.075,10.79 -20.606,2.21 -41.954,1.28 -62.6849999,2.35 -21.7910091,0.95 -27.8810091,6.55 -41.8550091,21.75 11.115,-43.14 26.9890001,-83.32 77.951009,-88.01 z" />
   <path
      id="zipper-slider-hook"
      fill="#d2e3fc"
      d="m 14.124091,1442.2898 c 16.704,-1.03 117.391489,-2.2192 126.180999,3.3 7.21549,4.5308 13.78302,16.2757 11.28,23.86 -5.10305,15.4625 -10.612,16.78 -27.177,17.9 -10.736,0.82 -23.029,0 -33.992999,-0.02 -24.967,-0.03 -50.054,0.23 -75.009,-0.35 -5.8259999,-0.14 -17.2029999,-1.62 -21.6280089,-5.51 -8.6940001,-7.66 -9.8630001,-23.4 -2.03,-32.17 6.181009,-6.93 13.959009,-6.46 22.3760089,-7.01 z" />
   <path
      id="zipper-slider-bottom"
      fill="#d2e3fc"
      d="m -33.089918,1496.4298 c 28.3320001,18.53 35.1590091,16.69 68.714009,16.5 -2.22,15.49 -4.193,38.15 -5.261,53.85 -0.167,0.87 -0.806,2.46 -1.128,3.36 -3.867,1.05 -13.637,-3.25 -17.047,-5.34 -26.740009,-16.39 -37.182009,-40.23 -45.278009,-68.37 z" />
   <path
      id="eye-left-outer"
      fill="#ffffff"
      d="m 191.23509,768.28571 c 32.20299,-2.744 64.64699,4.666 92.61499,20.728 110.327,63.361 130.016,220.82609 48.384,315.32609 -29.751,34.44 -72.302,56.95 -117.857,59.81 -0.532,0.05 -1.064,0.09 -1.596,0.13 -43.07499,2.99 -85.55299,-11.39 -117.938989,-39.95 -43.387,-37.71 -66.73,-87.59 -70.692,-144.90507 -6.83,-98.81002 62.784,-204.42902 167.084999,-211.13902 z" />
   <path
      id="eye-left-inner"
      fill="#174ea6"
      d="m 205.01408,840.18971 c 29.683,-1.56 41.935,7.596 64.101,26.419 -3.93,0.328 -7.855,0.698 -11.776,1.11 -12.688,1.369 -23.909,5.726 -31.996,16.022 -6.247,7.956 -8.928,18.139 -7.409,28.139 1.493,10.67 7.216,20.291 15.881,26.695 8.487,6.199 19.101,8.745 29.477,7.07 15.927,-2.604 23.828,-13.495 32.568,-25.457 13.174,49.901 5.913,105.40209 -27.078,146.11209 -12.044,12.48 -28.927,25.17 -46.537,26.44 -129.384989,9.38 -135.229989,-236.91309 -17.231,-252.55009 z" />
   <path
      id="eye-right-outer"
      fill="#ffffff"
      d="m 765.30708,768.27571 c 41.246,-2.861 75.926,6.421 109.766,30.795 115.97,83.53 108.77,276.12909 -18.22,345.76909 -20.45,11.22 -38.45,15.41 -61.48,18.94 -48.868,2.03 -86.545,-7.58 -124.496,-39.44 -39.363,-33.57 -64.089,-81.16 -68.924,-132.67004 -1.412,-16.69703 -1.892,-43.22405 0.622,-59.81005 12.686,-83.665 76.845,-156.575 162.732,-163.584 z" />
   <path
      id="eye-right-inner"
      fill="#174ea6"
      d="m 763.02408,840.05371 c 1.134,-0.103 2.269,-0.178 3.406,-0.224 26.463,-1.208 42.313,9.638 61.013,26.891 -14.78,2.659 -26.99,1.262 -38.45,12.953 -24.118,24.604 -6.16,68.017 28.98,66.437 17.98,-0.808 26.62,-11.112 37.97,-23.285 2.79,11.383 4.54,22.995 5.24,34.693 2.31,38.69105 -8.22,80.31109 -34.38,109.67109 -26.39,27.51 -64.19,36.01 -97.171,13.16 -74.991,-51.95 -66.161,-221.44809 33.392,-240.29609 z" />
</svg>
